<svg width="210" height="83" viewBox="0 0 210 83" version="1.1" xmlns="http://www.w3.org/2000/svg">
  <g id="Page-1" stroke="none" stroke-width="1" fill="none" fill-rule="evenodd">
    <polygon 
      id="Path" 
      stroke="currentColor" 
      fill="currentColor" 
      points="1.14355469 0.826171875 25.6162109 0.826171875 64.9287109 40.0361328 25.6162109 81.7998047 1.14355469 81.7998047 1.14355469 68.9882812 8.02734375 68.9882812 34.5800781 40.0361328 1.14355469 3.71777344"
    />
    <path 
      d="M73.5722656,82 L73.5722656,0.841796875 L85.1503906,0.841796875 L121.888672,58.5097656 L122.111328,58.5097656 L122.111328,0.841796875 L134.413086,0.841796875 L134.413086,82 L122.779297,82 L86.0966797,24.3320312 L85.8740234,24.3320312 L85.8740234,82 L73.5722656,82 Z M151.557617,82 L151.557617,0.841796875 L179.946289,0.841796875 C190.930719,0.916015996 199.168918,5.48042348 204.661133,14.5351562 C206.62794,17.5781402 207.871091,20.7695146 208.390625,24.109375 C208.79883,27.4492354 209.00293,33.2196856 209.00293,41.4208984 C209.00293,50.1416452 208.687503,56.2275218 208.056641,59.6787109 C207.759764,61.4228603 207.314456,62.9814384 206.720703,64.3544922 C206.089841,65.6904364 205.329106,67.082024 204.438477,68.5292969 C202.063465,72.3515816 198.760763,75.5058469 194.530273,77.9921875 C190.336893,80.6640759 185.197296,82 179.111328,82 L151.557617,82 Z M163.859375,12.4755859 L163.859375,70.3662109 L178.554688,70.3662109 C185.457066,70.3662109 190.466781,68.0097892 193.583984,63.296875 C194.957038,61.5527257 195.8291,59.3447399 196.200195,56.6728516 C196.534181,54.0380728 196.701172,49.1025752 196.701172,41.8662109 C196.701172,34.8153944 196.534181,29.7685699 196.200195,26.7255859 C195.754881,23.682602 194.697274,21.2148532 193.027344,19.3222656 C189.613264,14.6093514 184.789094,12.3271477 178.554688,12.4755859 L163.859375,12.4755859 Z" 
      id="ND" 
      stroke="currentColor" 
      fill="currentColor" 
      fill-rule="nonzero"
    />
  </g>
</svg>